<svg xmlns="http://www.w3.org/2000/svg" width="820" height="560" viewBox="0 0 820 560" font-family="Segoe UI, Helvetica, Arial, sans-serif"><rect width="820" height="560" fill="#ffffff"/><text x="410.0" y="32.0" font-size="18.5" fill="#1A2B45" text-anchor="middle" font-weight="bold">Which Protocol Leads Each Performance Sector</text><text x="410.0" y="53.0" font-size="12" fill="#666" text-anchor="middle" font-weight="normal">each slice is one criterion, coloured by the leading algorithm</text><path d="M 250 285 L 250.0 110.0 A 175 175 0 0 1 386.8 175.9 Z" fill="#1A5FAD" stroke="#ffffff" stroke-width="2"/><text x="334.6" y="109.3" font-size="11.5" fill="#333" text-anchor="start" font-weight="bold">Lifetime</text><text x="334.6" y="122.3" font-size="10.5" fill="#1A5FAD" text-anchor="start" font-weight="bold">-&gt; SGA-MS</text><text x="295.6" y="190.4" font-size="12" fill="#ffffff" text-anchor="middle" font-weight="bold">92</text><path d="M 250 285 L 386.8 175.9 A 175 175 0 0 1 420.6 323.9 Z" fill="#1A5FAD" stroke="#ffffff" stroke-width="2"/><text x="440.1" y="241.6" font-size="11.5" fill="#333" text-anchor="start" font-weight="bold">Energy Balance</text><text x="440.1" y="254.6" font-size="10.5" fill="#1A5FAD" text-anchor="start" font-weight="bold">-&gt; SGA-MS</text><text x="352.4" y="261.6" font-size="12" fill="#ffffff" text-anchor="middle" font-weight="bold">90</text><path d="M 250 285 L 420.6 323.9 A 175 175 0 0 1 325.9 442.7 Z" fill="#1A5FAD" stroke="#ffffff" stroke-width="2"/><text x="402.5" y="406.6" font-size="11.5" fill="#333" text-anchor="start" font-weight="bold">Throughput</text><text x="402.5" y="419.6" font-size="10.5" fill="#1A5FAD" text-anchor="start" font-weight="bold">-&gt; SGA-MS</text><text x="332.1" y="350.5" font-size="12" fill="#ffffff" text-anchor="middle" font-weight="bold">85</text><path d="M 250 285 L 325.9 442.7 A 175 175 0 0 1 174.1 442.7 Z" fill="#C0392B" stroke="#ffffff" stroke-width="2"/><text x="250.0" y="480.0" font-size="11.5" fill="#333" text-anchor="middle" font-weight="bold">Latency</text><text x="250.0" y="493.0" font-size="10.5" fill="#C0392B" text-anchor="middle" font-weight="bold">-&gt; LEACH</text><text x="250.0" y="390.0" font-size="12" fill="#ffffff" text-anchor="middle" font-weight="bold">88</text><path d="M 250 285 L 174.1 442.7 A 175 175 0 0 1 79.4 323.9 Z" fill="#C0392B" stroke="#ffffff" stroke-width="2"/><text x="97.5" y="406.6" font-size="11.5" fill="#333" text-anchor="end" font-weight="bold">Overhead</text><text x="97.5" y="419.6" font-size="10.5" fill="#C0392B" text-anchor="end" font-weight="bold">-&gt; LEACH</text><text x="167.9" y="350.5" font-size="12" fill="#ffffff" text-anchor="middle" font-weight="bold">95</text><path d="M 250 285 L 79.4 323.9 A 175 175 0 0 1 113.2 175.9 Z" fill="#1A5FAD" stroke="#ffffff" stroke-width="2"/><text x="59.9" y="241.6" font-size="11.5" fill="#333" text-anchor="end" font-weight="bold">Harvesting</text><text x="59.9" y="254.6" font-size="10.5" fill="#1A5FAD" text-anchor="end" font-weight="bold">-&gt; SGA-MS</text><text x="147.6" y="261.6" font-size="12" fill="#ffffff" text-anchor="middle" font-weight="bold">95</text><path d="M 250 285 L 113.2 175.9 A 175 175 0 0 1 250.0 110.0 Z" fill="#27AE60" stroke="#ffffff" stroke-width="2"/><text x="165.4" y="109.3" font-size="11.5" fill="#333" text-anchor="end" font-weight="bold">Scalability</text><text x="165.4" y="122.3" font-size="10.5" fill="#27AE60" text-anchor="end" font-weight="bold">-&gt; HEED</text><text x="204.4" y="190.4" font-size="12" fill="#ffffff" text-anchor="middle" font-weight="bold">82</text><text x="540.0" y="98.0" font-size="14" fill="#1A2B45" text-anchor="start" font-weight="bold">Sectors led</text><rect x="540" y="108" width="15" height="15" rx="2" fill="#C0392B"/><text x="562.0" y="120.0" font-size="12.5" fill="#333" text-anchor="start" font-weight="normal">LEACH</text><text x="690.0" y="120.0" font-size="12.5" fill="#333" text-anchor="end" font-weight="normal">2 / 7</text><rect x="540" y="134" width="15" height="15" rx="2" fill="#E67E22"/><text x="562.0" y="146.0" font-size="12.5" fill="#333" text-anchor="start" font-weight="normal">PEGASIS</text><text x="690.0" y="146.0" font-size="12.5" fill="#333" text-anchor="end" font-weight="normal">0 / 7</text><rect x="540" y="160" width="15" height="15" rx="2" fill="#27AE60"/><text x="562.0" y="172.0" font-size="12.5" fill="#333" text-anchor="start" font-weight="normal">HEED</text><text x="690.0" y="172.0" font-size="12.5" fill="#333" text-anchor="end" font-weight="normal">1 / 7</text><rect x="540" y="186" width="15" height="15" rx="2" fill="#8E44AD"/><text x="562.0" y="198.0" font-size="12.5" fill="#333" text-anchor="start" font-weight="normal">GA-CH</text><text x="690.0" y="198.0" font-size="12.5" fill="#333" text-anchor="end" font-weight="normal">0 / 7</text><rect x="540" y="212" width="15" height="15" rx="2" fill="#1A5FAD"/><text x="562.0" y="224.0" font-size="12.5" fill="#333" text-anchor="start" font-weight="bold">SGA-MS</text><text x="690.0" y="224.0" font-size="12.5" fill="#333" text-anchor="end" font-weight="normal">4 / 7</text><text x="20.0" y="546.0" font-size="10.5" fill="#8a8f98" text-anchor="start" font-weight="italic">Illustrative comparison - SGA-MS &amp; LEACH from this study's representative run; HEED/PEGASIS/GA-CH positioned from typical literature behaviour. Not a measured benchmark.</text></svg>