<svg xmlns="http://www.w3.org/2000/svg" width="720" height="720" viewBox="0 0 720 720" font-family="Segoe UI, Helvetica, Arial, sans-serif"><rect width="720" height="720" fill="#ffffff"/><text x="360.0" y="32.0" font-size="19" fill="#1A2B45" text-anchor="middle" font-weight="bold">Multi-Criteria Profile (Radar)</text><text x="360.0" y="54.0" font-size="12.5" fill="#666" text-anchor="middle" font-weight="normal">each spoke is one criterion; further out is better</text><polygon points="360.0,289.0 392.1,304.4 400.0,339.1 377.8,366.9 342.2,366.9 320.0,339.1 327.9,304.4" fill="none" stroke="#e3e8ee" stroke-width="1"/><polygon points="360.0,248.0 424.1,278.9 439.9,348.2 395.6,403.9 324.4,403.9 280.1,348.2 295.9,278.9" fill="none" stroke="#e3e8ee" stroke-width="1"/><polygon points="360.0,207.0 456.2,253.3 479.9,357.4 413.4,440.8 306.6,440.8 240.1,357.4 263.8,253.3" fill="none" stroke="#e3e8ee" stroke-width="1"/><polygon points="360.0,166.0 488.2,227.7 519.9,366.5 431.2,477.8 288.8,477.8 200.1,366.5 231.8,227.7" fill="none" stroke="#e3e8ee" stroke-width="1"/><polygon points="360.0,125.0 520.3,202.2 559.9,375.6 448.9,514.7 271.1,514.7 160.1,375.6 199.7,202.2" fill="none" stroke="#e3e8ee" stroke-width="1"/><line x1="360" y1="330" x2="360.0" y2="125.0" stroke="#d3dae2" stroke-width="1"/><text x="360.0" y="93.0" font-size="11.5" fill="#444" text-anchor="middle" font-weight="bold">Network</text><text x="360.0" y="106.0" font-size="11.5" fill="#444" text-anchor="middle" font-weight="bold">Lifetime</text><line x1="360" y1="330" x2="520.3" y2="202.2" stroke="#d3dae2" stroke-width="1"/><text x="540.6" y="180.0" font-size="11.5" fill="#444" text-anchor="start" font-weight="bold">Energy</text><text x="540.6" y="193.0" font-size="11.5" fill="#444" text-anchor="start" font-weight="bold">Balance</text><line x1="360" y1="330" x2="559.9" y2="375.6" stroke="#d3dae2" stroke-width="1"/><text x="585.2" y="381.4" font-size="11.5" fill="#444" text-anchor="start" font-weight="bold">Throughput</text><line x1="360" y1="330" x2="448.9" y2="514.7" stroke="#d3dae2" stroke-width="1"/><text x="460.2" y="532.1" font-size="11.5" fill="#444" text-anchor="start" font-weight="bold">Low</text><text x="460.2" y="545.1" font-size="11.5" fill="#444" text-anchor="start" font-weight="bold">Latency</text><line x1="360" y1="330" x2="271.1" y2="514.7" stroke="#d3dae2" stroke-width="1"/><text x="259.8" y="532.1" font-size="11.5" fill="#444" text-anchor="end" font-weight="bold">Low</text><text x="259.8" y="545.1" font-size="11.5" fill="#444" text-anchor="end" font-weight="bold">Overhead</text><line x1="360" y1="330" x2="160.1" y2="375.6" stroke="#d3dae2" stroke-width="1"/><text x="134.8" y="375.4" font-size="11.5" fill="#444" text-anchor="end" font-weight="bold">Harvesting</text><text x="134.8" y="388.4" font-size="11.5" fill="#444" text-anchor="end" font-weight="bold">Awareness</text><line x1="360" y1="330" x2="199.7" y2="202.2" stroke="#d3dae2" stroke-width="1"/><text x="179.4" y="186.0" font-size="11.5" fill="#444" text-anchor="end" font-weight="bold">Scalability</text><polygon points="360.0,237.8 424.1,278.9 459.9,352.8 438.3,492.5 275.5,505.5 340.0,334.6 271.8,259.7" fill="#C0392B" fill-opacity="0.08" stroke="#C0392B" stroke-width="1.8"/><polygon points="360.0,196.8 475.4,238.0 469.9,355.1 386.7,385.4 299.5,455.6 336.0,335.5 287.9,272.5" fill="#E67E22" fill-opacity="0.08" stroke="#E67E22" stroke-width="1.8"/><polygon points="360.0,186.5 478.6,235.4 487.9,359.2 420.5,455.6 294.2,466.7 324.0,338.2 228.6,225.2" fill="#27AE60" fill-opacity="0.08" stroke="#27AE60" stroke-width="1.8"/><polygon points="360.0,166.0 481.8,232.9 503.9,362.8 415.1,444.5 313.7,426.0 290.0,346.0 254.2,245.6" fill="#8E44AD" fill-opacity="0.08" stroke="#8E44AD" stroke-width="1.8"/><polygon points="360.0,141.4 504.2,215.0 529.9,368.8 411.6,437.1 319.1,415.0 170.1,373.3 244.6,238.0" fill="#1A5FAD" fill-opacity="0.18" stroke="#1A5FAD" stroke-width="3"/><rect x="150" y="675" width="13" height="13" rx="2" fill="#C0392B"/><text x="168.0" y="686.0" font-size="12" fill="#333" text-anchor="start" font-weight="normal">LEACH</text><rect x="260" y="675" width="13" height="13" rx="2" fill="#E67E22"/><text x="278.0" y="686.0" font-size="12" fill="#333" text-anchor="start" font-weight="normal">PEGASIS</text><rect x="382" y="675" width="13" height="13" rx="2" fill="#27AE60"/><text x="400.0" y="686.0" font-size="12" fill="#333" text-anchor="start" font-weight="normal">HEED</text><rect x="486" y="675" width="13" height="13" rx="2" fill="#8E44AD"/><text x="504.0" y="686.0" font-size="12" fill="#333" text-anchor="start" font-weight="normal">GA-CH</text><rect x="596" y="675" width="13" height="13" rx="2" fill="#1A5FAD"/><text x="614.0" y="686.0" font-size="12" fill="#333" text-anchor="start" font-weight="bold">SGA-MS</text></svg>