<svg xmlns="http://www.w3.org/2000/svg" width="1080" height="620" viewBox="0 0 1080 620" font-family="Segoe UI, Helvetica, Arial, sans-serif"><rect width="1080" height="620" fill="#ffffff"/><text x="540.0" y="34.0" font-size="19" fill="#1A2B45" text-anchor="middle" font-weight="bold">Comparative Performance of WSN Clustering Protocols</text><text x="540.0" y="56.0" font-size="12.5" fill="#666" text-anchor="middle" font-weight="normal">normalised score per criterion (higher is better, 0-100)</text><rect x="78" y="66" width="14" height="14" rx="2" fill="#C0392B"/><text x="97.0" y="78.0" font-size="12.5" fill="#333" text-anchor="start" font-weight="bold">LEACH</text><rect x="208" y="66" width="14" height="14" rx="2" fill="#E67E22"/><text x="227.0" y="78.0" font-size="12.5" fill="#333" text-anchor="start" font-weight="bold">PEGASIS</text><rect x="354" y="66" width="14" height="14" rx="2" fill="#27AE60"/><text x="373.0" y="78.0" font-size="12.5" fill="#333" text-anchor="start" font-weight="bold">HEED</text><rect x="476" y="66" width="14" height="14" rx="2" fill="#8E44AD"/><text x="495.0" y="78.0" font-size="12.5" fill="#333" text-anchor="start" font-weight="bold">GA-CH</text><rect x="606" y="66" width="14" height="14" rx="2" fill="#1A5FAD"/><text x="625.0" y="78.0" font-size="12.5" fill="#333" text-anchor="start" font-weight="bold">SGA-MS</text><line x1="78" y1="470.0" x2="1000" y2="470.0" stroke="#e3e8ee" stroke-width="1"/><text x="70.0" y="474.0" font-size="11" fill="#888" text-anchor="end" font-weight="normal">0</text><line x1="78" y1="396.0" x2="1000" y2="396.0" stroke="#e3e8ee" stroke-width="1"/><text x="70.0" y="400.0" font-size="11" fill="#888" text-anchor="end" font-weight="normal">20</text><line x1="78" y1="322.0" x2="1000" y2="322.0" stroke="#e3e8ee" stroke-width="1"/><text x="70.0" y="326.0" font-size="11" fill="#888" text-anchor="end" font-weight="normal">40</text><line x1="78" y1="248.0" x2="1000" y2="248.0" stroke="#e3e8ee" stroke-width="1"/><text x="70.0" y="252.0" font-size="11" fill="#888" text-anchor="end" font-weight="normal">60</text><line x1="78" y1="174.0" x2="1000" y2="174.0" stroke="#e3e8ee" stroke-width="1"/><text x="70.0" y="178.0" font-size="11" fill="#888" text-anchor="end" font-weight="normal">80</text><line x1="78" y1="100.0" x2="1000" y2="100.0" stroke="#e3e8ee" stroke-width="1"/><text x="70.0" y="104.0" font-size="11" fill="#888" text-anchor="end" font-weight="normal">100</text><line x1="78" y1="470" x2="1000" y2="470" stroke="#9aa7b6" stroke-width="1.5"/><rect x="88.5" y="303.5" width="20.1" height="166.5" fill="#C0392B" rx="1.5"/><text x="98.6" y="300.5" font-size="9" fill="#555" text-anchor="middle" font-weight="normal">45</text><rect x="110.7" y="229.5" width="20.1" height="240.5" fill="#E67E22" rx="1.5"/><text x="120.7" y="226.5" font-size="9" fill="#555" text-anchor="middle" font-weight="normal">65</text><rect x="132.8" y="211.0" width="20.1" height="259.0" fill="#27AE60" rx="1.5"/><text x="142.9" y="208.0" font-size="9" fill="#555" text-anchor="middle" font-weight="normal">70</text><rect x="154.9" y="174.0" width="20.1" height="296.0" fill="#8E44AD" rx="1.5"/><text x="165.0" y="171.0" font-size="9" fill="#555" text-anchor="middle" font-weight="normal">80</text><rect x="177.0" y="129.6" width="20.1" height="340.4" fill="#1A5FAD" rx="1.5"/><text x="187.1" y="126.6" font-size="9" fill="#555" text-anchor="middle" font-weight="normal">92</text><text x="143.9" y="490.0" font-size="11.5" fill="#333" text-anchor="middle" font-weight="normal">Network</text><text x="143.9" y="503.0" font-size="11.5" fill="#333" text-anchor="middle" font-weight="normal">Lifetime</text><rect x="220.3" y="322.0" width="20.1" height="148.0" fill="#C0392B" rx="1.5"/><text x="230.3" y="319.0" font-size="9" fill="#555" text-anchor="middle" font-weight="normal">40</text><rect x="242.4" y="203.6" width="20.1" height="266.4" fill="#E67E22" rx="1.5"/><text x="252.4" y="200.6" font-size="9" fill="#555" text-anchor="middle" font-weight="normal">72</text><rect x="264.5" y="196.2" width="20.1" height="273.8" fill="#27AE60" rx="1.5"/><text x="274.6" y="193.2" font-size="9" fill="#555" text-anchor="middle" font-weight="normal">74</text><rect x="286.6" y="188.8" width="20.1" height="281.2" fill="#8E44AD" rx="1.5"/><text x="296.7" y="185.8" font-size="9" fill="#555" text-anchor="middle" font-weight="normal">76</text><rect x="308.8" y="137.0" width="20.1" height="333.0" fill="#1A5FAD" rx="1.5"/><text x="318.8" y="134.0" font-size="9" fill="#555" text-anchor="middle" font-weight="normal">90</text><text x="275.6" y="490.0" font-size="11.5" fill="#333" text-anchor="middle" font-weight="normal">Energy</text><text x="275.6" y="503.0" font-size="11.5" fill="#333" text-anchor="middle" font-weight="normal">Balance</text><rect x="352.0" y="285.0" width="20.1" height="185.0" fill="#C0392B" rx="1.5"/><text x="362.0" y="282.0" font-size="9" fill="#555" text-anchor="middle" font-weight="normal">50</text><rect x="374.1" y="266.5" width="20.1" height="203.5" fill="#E67E22" rx="1.5"/><text x="384.2" y="263.5" font-size="9" fill="#555" text-anchor="middle" font-weight="normal">55</text><rect x="396.2" y="233.2" width="20.1" height="236.8" fill="#27AE60" rx="1.5"/><text x="406.3" y="230.2" font-size="9" fill="#555" text-anchor="middle" font-weight="normal">64</text><rect x="418.3" y="203.6" width="20.1" height="266.4" fill="#8E44AD" rx="1.5"/><text x="428.4" y="200.6" font-size="9" fill="#555" text-anchor="middle" font-weight="normal">72</text><rect x="440.5" y="155.5" width="20.1" height="314.5" fill="#1A5FAD" rx="1.5"/><text x="450.5" y="152.5" font-size="9" fill="#555" text-anchor="middle" font-weight="normal">85</text><text x="407.3" y="490.0" font-size="11.5" fill="#333" text-anchor="middle" font-weight="normal">Throughput</text><rect x="483.7" y="144.4" width="20.1" height="325.6" fill="#C0392B" rx="1.5"/><text x="493.7" y="141.4" font-size="9" fill="#555" text-anchor="middle" font-weight="normal">88</text><rect x="505.8" y="359.0" width="20.1" height="111.0" fill="#E67E22" rx="1.5"/><text x="515.9" y="356.0" font-size="9" fill="#555" text-anchor="middle" font-weight="normal">30</text><rect x="527.9" y="218.4" width="20.1" height="251.6" fill="#27AE60" rx="1.5"/><text x="538.0" y="215.4" font-size="9" fill="#555" text-anchor="middle" font-weight="normal">68</text><rect x="550.1" y="240.6" width="20.1" height="229.4" fill="#8E44AD" rx="1.5"/><text x="560.1" y="237.6" font-size="9" fill="#555" text-anchor="middle" font-weight="normal">62</text><rect x="572.2" y="255.4" width="20.1" height="214.6" fill="#1A5FAD" rx="1.5"/><text x="582.3" y="252.4" font-size="9" fill="#555" text-anchor="middle" font-weight="normal">58</text><text x="539.0" y="490.0" font-size="11.5" fill="#333" text-anchor="middle" font-weight="normal">Low</text><text x="539.0" y="503.0" font-size="11.5" fill="#333" text-anchor="middle" font-weight="normal">Latency</text><rect x="615.4" y="118.5" width="20.1" height="351.5" fill="#C0392B" rx="1.5"/><text x="625.5" y="115.5" font-size="9" fill="#555" text-anchor="middle" font-weight="normal">95</text><rect x="637.5" y="218.4" width="20.1" height="251.6" fill="#E67E22" rx="1.5"/><text x="647.6" y="215.4" font-size="9" fill="#555" text-anchor="middle" font-weight="normal">68</text><rect x="659.7" y="196.2" width="20.1" height="273.8" fill="#27AE60" rx="1.5"/><text x="669.7" y="193.2" font-size="9" fill="#555" text-anchor="middle" font-weight="normal">74</text><rect x="681.8" y="277.6" width="20.1" height="192.4" fill="#8E44AD" rx="1.5"/><text x="691.8" y="274.6" font-size="9" fill="#555" text-anchor="middle" font-weight="normal">52</text><rect x="703.9" y="299.8" width="20.1" height="170.2" fill="#1A5FAD" rx="1.5"/><text x="714.0" y="296.8" font-size="9" fill="#555" text-anchor="middle" font-weight="normal">46</text><text x="670.7" y="490.0" font-size="11.5" fill="#333" text-anchor="middle" font-weight="normal">Low</text><text x="670.7" y="503.0" font-size="11.5" fill="#333" text-anchor="middle" font-weight="normal">Overhead</text><rect x="747.1" y="433.0" width="20.1" height="37.0" fill="#C0392B" rx="1.5"/><text x="757.2" y="430.0" font-size="9" fill="#555" text-anchor="middle" font-weight="normal">10</text><rect x="769.2" y="425.6" width="20.1" height="44.4" fill="#E67E22" rx="1.5"/><text x="779.3" y="422.6" font-size="9" fill="#555" text-anchor="middle" font-weight="normal">12</text><rect x="791.4" y="403.4" width="20.1" height="66.6" fill="#27AE60" rx="1.5"/><text x="801.4" y="400.4" font-size="9" fill="#555" text-anchor="middle" font-weight="normal">18</text><rect x="813.5" y="340.5" width="20.1" height="129.5" fill="#8E44AD" rx="1.5"/><text x="823.6" y="337.5" font-size="9" fill="#555" text-anchor="middle" font-weight="normal">35</text><rect x="835.6" y="118.5" width="20.1" height="351.5" fill="#1A5FAD" rx="1.5"/><text x="845.7" y="115.5" font-size="9" fill="#555" text-anchor="middle" font-weight="normal">95</text><text x="802.4" y="490.0" font-size="11.5" fill="#333" text-anchor="middle" font-weight="normal">Harvesting</text><text x="802.4" y="503.0" font-size="11.5" fill="#333" text-anchor="middle" font-weight="normal">Awareness</text><rect x="878.8" y="266.5" width="20.1" height="203.5" fill="#C0392B" rx="1.5"/><text x="888.9" y="263.5" font-size="9" fill="#555" text-anchor="middle" font-weight="normal">55</text><rect x="901.0" y="303.5" width="20.1" height="166.5" fill="#E67E22" rx="1.5"/><text x="911.0" y="300.5" font-size="9" fill="#555" text-anchor="middle" font-weight="normal">45</text><rect x="923.1" y="166.6" width="20.1" height="303.4" fill="#27AE60" rx="1.5"/><text x="933.1" y="163.6" font-size="9" fill="#555" text-anchor="middle" font-weight="normal">82</text><rect x="945.2" y="225.8" width="20.1" height="244.2" fill="#8E44AD" rx="1.5"/><text x="955.3" y="222.8" font-size="9" fill="#555" text-anchor="middle" font-weight="normal">66</text><rect x="967.3" y="203.6" width="20.1" height="266.4" fill="#1A5FAD" rx="1.5"/><text x="977.4" y="200.6" font-size="9" fill="#555" text-anchor="middle" font-weight="normal">72</text><text x="934.1" y="490.0" font-size="11.5" fill="#333" text-anchor="middle" font-weight="normal">Scalability</text><text x="78.0" y="604.0" font-size="10.5" fill="#8a8f98" text-anchor="start" font-weight="italic">Illustrative comparison - SGA-MS &amp; LEACH from this study's representative run; HEED/PEGASIS/GA-CH positioned from typical literature behaviour. Not a measured benchmark.</text></svg>